<?xml version="1.0" standalone="no"?>
<!DOCTYPE svg PUBLIC "-//W3C//DTD SVG 20010904//EN"
 "http://www.w3.org/TR/2001/REC-SVG-20010904/DTD/svg10.dtd">
<svg version="1.0" xmlns="http://www.w3.org/2000/svg"
 width="495.000000pt" height="407.000000pt" viewBox="0 0 495.000000 407.000000"
 preserveAspectRatio="xMidYMid meet">
<metadata>
Created by potrace 1.16, written by Peter Selinger 2001-2019
</metadata>
<g transform="translate(0.000000,407.000000) scale(0.100000,-0.100000)"
fill="#088391" stroke="none">
<path d="M760 3192 c0 -25 60 -153 103 -220 103 -159 247 -293 516 -478 333
-231 440 -327 502 -451 28 -59 34 -80 37 -158 3 -70 -1 -104 -16 -152 l-20
-62 322 -440 c176 -243 322 -437 324 -432 2 5 -8 47 -22 93 -14 46 -75 283
-135 528 -149 606 -219 799 -354 975 -107 140 -214 204 -432 258 -203 51 -299
92 -455 196 -81 54 -289 248 -344 321 -14 19 -26 29 -26 22z"/>
<path d="M4305 3174 c-37 -56 -202 -218 -292 -285 -163 -123 -287 -181 -508
-236 -218 -54 -325 -118 -432 -258 -135 -176 -205 -369 -354 -975 -60 -245
-121 -482 -135 -528 -14 -46 -24 -88 -22 -93 2 -5 148 189 324 432 l322 440
-20 62 c-15 48 -19 82 -16 152 9 200 103 307 539 609 335 231 499 402 590 617
32 76 35 110 4 63z"/>
</g>
</svg>
